STARTFONT 2.1
COMMENT This font is Public Domain. Made by nico@warp7.de
FONT -chess-big-Medium-R-Normal--42-320-96-96-M-280-FontSpecific-0
SIZE 32 96 96
FONTBOUNDINGBOX 38 38 -6 -8
STARTPROPERTIES 13
POINT_SIZE 320
PIXEL_SIZE 42
RESOLUTION_X 96
RESOLUTION_Y 96
FONT_ASCENT 32
FONT_DESCENT 10
AVERAGE_WIDTH 280
SPACING "M"
FAMILY_NAME "big"
FOUNDRY "chess"
COPYRIGHT "This font is Public Domain. Made by nico@warp7.de"
DEFAULT_CHAR 2
ENDPROPERTIES
CHARS 14
STARTCHAR char0
ENCODING 0
SWIDTH 890 0
DWIDTH 38 0
BBX 0 0 0 0
BITMAP
ENDCHAR
STARTCHAR char0
ENCODING 1
SWIDTH 890 0
DWIDTH 38 0
BBX 38 38 -6 -8
BITMAP
FFFFFFFFFC
FFFFFFFFFC
C00000000C
C00000000C
C00000000C
C00000000C
C00000000C
C00000000C
C00000000C
C00000000C
C00000000C
C00000000C
C00000000C
C00000000C
C00000000C
C00000000C
C00000000C
C00000000C
C00000000C
C00000000C
C00000000C
C00000000C
C00000000C
C00000000C
C00000000C
C00000000C
C00000000C
C00000000C
C00000000C
C00000000C
C00000000C
C00000000C
C00000000C
C00000000C
C00000000C
C00000000C
FFFFFFFFFC
FFFFFFFFFC
ENDCHAR
STARTCHAR char64
ENCODING 66
SWIDTH 890 0
DWIDTH 38 0
BBX 26 38 2 -8
BITMAP
000C0000
000C0000
00330000
00330000
000C0000
000C0000
003F0000
003F0000
03C0F000
03C0F000
0C0C0C00
0C0C0C00
30330300
30330300
30330300
30330300
C3F3F0C0
C3F3F0C0
CC000CC0
CC000CC0
C3F3F0C0
C3F3F0C0
30330300
30330300
30330300
30330300
0C0C0C00
0C0C0C00
0C000C00
0C000C00
0C000C00
0C000C00
FFFFFFC0
FFFFFFC0
C00000C0
C00000C0
FFFFFFC0
FFFFFFC0
ENDCHAR
STARTCHAR char64
ENCODING 75
SWIDTH 890 0
DWIDTH 38 0
BBX 26 38 2 -8
BITMAP
000C0000
000C0000
000C0000
000C0000
00FFC000
00FFC000
000C0000
000C0000
003F0000
003F0000
00C0C000
00C0C000
0F003C00
0F003C00
30C0C300
30C0C300
30330300
30330300
C00C00C0
C00C00C0
C00C00C0
C00C00C0
C00C00C0
C00C00C0
C00C00C0
C00C00C0
300C0300
300C0300
300C0300
300C0300
0C000C00
0C000C00
FFFFFFC0
FFFFFFC0
C00000C0
C00000C0
FFFFFFC0
FFFFFFC0
ENDCHAR
STARTCHAR char64
ENCODING 78
SWIDTH 890 0
DWIDTH 38 0
BBX 26 38 2 -8
BITMAP
003C0000
003C0000
0033C000
0033C000
00C03000
00C03000
00C00C00
00C00C00
03300300
03300300
0CF00300
0CF00300
300000C0
300000C0
C00000C0
C00000C0
C0F000C0
C0F000C0
330C00C0
330C00C0
0C0C00C0
0C0C00C0
000C0300
000C0300
00300300
00300300
00C00300
00C00300
03000300
03000300
0C000300
0C000300
FFFFFFC0
FFFFFFC0
C00000C0
C00000C0
FFFFFFC0
FFFFFFC0
ENDCHAR
STARTCHAR char64
ENCODING 80
SWIDTH 890 0
DWIDTH 38 0
BBX 26 38 2 -8
BITMAP
003F0000
003F0000
00C0C000
00C0C000
00C0C000
00C0C000
00C0C000
00C0C000
003F0000
003F0000
00C0C000
00C0C000
03003000
03003000
03003000
03003000
03003000
03003000
03003000
03003000
03003000
03003000
00FFC000
00FFC000
03003000
03003000
0C000C00
0C000C00
30000300
30000300
30000300
30000300
FFFFFFC0
FFFFFFC0
C00000C0
C00000C0
FFFFFFC0
FFFFFFC0
ENDCHAR
STARTCHAR char64
ENCODING 81
SWIDTH 890 0
DWIDTH 38 0
BBX 26 38 2 -8
BITMAP
C00C00C0
C00C00C0
F00C03C0
F00C03C0
CC330CC0
CC330CC0
3C330F00
3C330F00
33333300
33333300
33333300
33333300
0CC0CC00
0CC0CC00
0CC0CC00
0CC0CC00
0C000C00
0C000C00
03003000
03003000
03003000
03003000
03003000
03003000
03FFF000
03FFF000
0C000C00
0C000C00
0C000C00
0C000C00
0C000C00
0C000C00
FFFFFFC0
FFFFFFC0
C00000C0
C00000C0
FFFFFFC0
FFFFFFC0
ENDCHAR
STARTCHAR char64
ENCODING 82
SWIDTH 890 0
DWIDTH 38 0
BBX 26 38 2 -8
BITMAP
3F3F3F00
3F3F3F00
33333300
33333300
33F3F300
33F3F300
30000300
30000300
3FFFFF00
3FFFFF00
03003000
03003000
03003000
03003000
03003000
03003000
03003000
03003000
03003000
03003000
0FFFFC00
0FFFFC00
0C000C00
0C000C00
0C000C00
0C000C00
0C000C00
0C000C00
0C000C00
0C000C00
0C000C00
0C000C00
FFFFFFC0
FFFFFFC0
C00000C0
C00000C0
FFFFFFC0
FFFFFFC0
ENDCHAR
STARTCHAR char64
ENCODING 98
SWIDTH 890 0
DWIDTH 38 0
BBX 26 38 2 -8
BITMAP
000C0000
000C0000
00330000
00330000
000C0000
000C0000
003F0000
003F0000
03FFF000
03FFF000
0FF3FC00
0FF3FC00
3FCCFF00
3FCCFF00
3FCCFF00
3FCCFF00
FC0C0FC0
FC0C0FC0
F3FFF3C0
F3FFF3C0
FC0C0FC0
FC0C0FC0
3FCCFF00
3FCCFF00
3FCCFF00
3FCCFF00
0FF3FC00
0FF3FC00
0FFFFC00
0FFFFC00
0FFFFC00
0FFFFC00
FFFFFFC0
FFFFFFC0
C00000C0
C00000C0
FFFFFFC0
FFFFFFC0
ENDCHAR
STARTCHAR char64
ENCODING 107
SWIDTH 890 0
DWIDTH 38 0
BBX 26 38 2 -8
BITMAP
000C0000
000C0000
000C0000
000C0000
00FFC000
00FFC000
000C0000
000C0000
003F0000
003F0000
00FFC000
00FFC000
0CFFCC00
0CFFCC00
3F3F3F00
3F3F3F00
3FCCFF00
3FCCFF00
FFF3FFC0
FFF3FFC0
FFF3FFC0
FFF3FFC0
FFF3FFC0
FFF3FFC0
FFF3FFC0
FFF3FFC0
3FF3FF00
3FF3FF00
3FF3FF00
3FF3FF00
0FFFFC00
0FFFFC00
FFFFFFC0
FFFFFFC0
C00000C0
C00000C0
FFFFFFC0
FFFFFFC0
ENDCHAR
STARTCHAR char64
ENCODING 110
SWIDTH 890 0
DWIDTH 38 0
BBX 26 38 2 -8
BITMAP
003C0000
003C0000
003FC000
003FC000
00FFF000
00FFF000
00FFFC00
00FFFC00
03CFFF00
03CFFF00
0F0FFF00
0F0FFF00
3FFFFFC0
3FFFFFC0
FFFFFFC0
FFFFFFC0
FFFFFFC0
FFFFFFC0
3F0FFFC0
3F0FFFC0
0C0FFFC0
0C0FFFC0
000FFF00
000FFF00
003FFF00
003FFF00
00FFFF00
00FFFF00
03FFFF00
03FFFF00
0FFFFF00
0FFFFF00
FFFFFFC0
FFFFFFC0
C00000C0
C00000C0
FFFFFFC0
FFFFFFC0
ENDCHAR
STARTCHAR char64
ENCODING 112
SWIDTH 890 0
DWIDTH 38 0
BBX 26 38 2 -8
BITMAP
003F0000
003F0000
00FFC000
00FFC000
00FFC000
00FFC000
00FFC000
00FFC000
003F0000
003F0000
00C0C000
00C0C000
03FFF000
03FFF000
03FFF000
03FFF000
03FFF000
03FFF000
03FFF000
03FFF000
03FFF000
03FFF000
00FFC000
00FFC000
03C0F000
03C0F000
0FFFFC00
0FFFFC00
3FFFFF00
3FFFFF00
3FFFFF00
3FFFFF00
FFFFFFC0
FFFFFFC0
C00000C0
C00000C0
FFFFFFC0
FFFFFFC0
ENDCHAR
STARTCHAR char64
ENCODING 113
SWIDTH 890 0
DWIDTH 38 0
BBX 26 38 2 -8
BITMAP
C00C00C0
C00C00C0
F00C03C0
F00C03C0
FC3F0FC0
FC3F0FC0
3C3F0F00
3C3F0F00
3F3F3F00
3F3F3F00
3F3F3F00
3F3F3F00
0FFFFC00
0FFFFC00
0FFFFC00
0FFFFC00
0FFFFC00
0FFFFC00
03FFF000
03FFF000
03FFF000
03FFF000
03FFF000
03FFF000
03003000
03003000
0FFFFC00
0FFFFC00
0FFFFC00
0FFFFC00
0FFFFC00
0FFFFC00
FFFFFFC0
FFFFFFC0
C00000C0
C00000C0
FFFFFFC0
FFFFFFC0
ENDCHAR
STARTCHAR char64
ENCODING 114
SWIDTH 890 0
DWIDTH 38 0
BBX 26 38 2 -8
BITMAP
3F3F3F00
3F3F3F00
3F3F3F00
3F3F3F00
3FFFFF00
3FFFFF00
30000300
30000300
3FFFFF00
3FFFFF00
03FFF000
03FFF000
03FFF000
03FFF000
03FFF000
03FFF000
03FFF000
03FFF000
03003000
03003000
0FFFFC00
0FFFFC00
0FFFFC00
0FFFFC00
0FFFFC00
0FFFFC00
0FFFFC00
0FFFFC00
0FFFFC00
0FFFFC00
0FFFFC00
0FFFFC00
FFFFFFC0
FFFFFFC0
C00000C0
C00000C0
FFFFFFC0
FFFFFFC0
ENDCHAR
ENDFONT
